name D:\school\WTK\thesis\model\3dpredictsim\Results\debug_batch\Pog_s1_tmt_aCst_d00_k1000_ig24_pas.mot
datacolumns 128
datarows 4
range 1.10643034 1.13962325
endheader
time	pelvis_tilt	pelvis_list	pelvis_rotation	pelvis_tx	pelvis_ty	pelvis_tz	hip_flexion_l	hip_adduction_l	hip_rotation_l	hip_flexion_r	hip_adduction_r	hip_rotation_r	knee_angle_l	knee_angle_r	ankle_angle_l	ankle_angle_r	subtalar_angle_l	subtalar_angle_r	tmt_angle_l	tmt_angle_r	mtp_angle_l	mtp_angle_r	lumbar_extension	lumbar_bending	lumbar_rotation	arm_flex_l	arm_add_l	arm_rot_l	arm_flex_r	arm_add_r	arm_rot_r	elbow_flex_l	elbow_flex_r	pro_sup_l	pro_sup_r	glut_med1_l/activation	glut_med2_l/activation	glut_med3_l/activation	glut_min1_l/activation	glut_min2_l/activation	glut_min3_l/activation	semimem_l/activation	semiten_l/activation	bifemlh_l/activation	bifemsh_l/activation	sar_l/activation	add_long_l/activation	add_brev_l/activation	add_mag1_l/activation	add_mag2_l/activation	add_mag3_l/activation	tfl_l/activation	pect_l/activation	grac_l/activation	glut_max1_l/activation	glut_max2_l/activation	glut_max3_l/activation	iliacus_l/activation	psoas_l/activation	quad_fem_l/activation	gem_l/activation	peri_l/activation	rect_fem_l/activation	vas_med_l/activation	vas_int_l/activation	vas_lat_l/activation	med_gas_l/activation	lat_gas_l/activation	soleus_l/activation	tib_post_l/activation	flex_dig_l/activation	flex_hal_l/activation	tib_ant_l/activation	per_brev_l/activation	per_long_l/activation	per_tert_l/activation	ext_dig_l/activation	ext_hal_l/activation	ercspn_l/activation	intobl_l/activation	extobl_l/activation	glut_med1_r/activation	glut_med2_r/activation	glut_med3_r/activation	glut_min1_r/activation	glut_min2_r/activation	glut_min3_r/activation	semimem_r/activation	semiten_r/activation	bifemlh_r/activation	bifemsh_r/activation	sar_r/activation	add_long_r/activation	add_brev_r/activation	add_mag1_r/activation	add_mag2_r/activation	add_mag3_r/activation	tfl_r/activation	pect_r/activation	grac_r/activation	glut_max1_r/activation	glut_max2_r/activation	glut_max3_r/activation	iliacus_r/activation	psoas_r/activation	quad_fem_r/activation	gem_r/activation	peri_r/activation	rect_fem_r/activation	vas_med_r/activation	vas_int_r/activation	vas_lat_r/activation	med_gas_r/activation	lat_gas_r/activation	soleus_r/activation	tib_post_r/activation	flex_dig_r/activation	flex_hal_r/activation	tib_ant_r/activation	per_brev_r/activation	per_long_r/activation	per_tert_r/activation	ext_dig_r/activation	ext_hal_r/activation	ercspn_r/activation	intobl_r/activation	extobl_r/activation	
          1.10643034	         -2.92723465	         -2.45177245	          6.05883611	          1.38303792	          0.85536494	         -0.00330578	        -18.53926789	         -2.08676007	          7.25981608	         32.00085507	          3.12714483	         -3.26306188	         -7.38324253	        -14.91606783	          0.15679723	          6.04086601	         10.87725472	         -2.93492116	          1.75511537	          0.03212326	         22.48056521	         -0.11620479	         -2.17649657	          0.88071362	         -2.01930213	          8.45419368	        -13.46069088	         18.28347932	         -8.46356839	        -13.56014603	         10.41307105	         37.21094905	         12.08960272	         86.51662706	         86.51662706	          0.24759281	          0.09839408	          0.06559282	          0.30626079	          0.19950628	          0.10004077	          0.05000092	          0.05000008	          0.05000006	          0.08198226	          0.11401641	          0.08472117	          0.05000016	          0.05000017	          0.05000039	          0.05000034	          0.32672683	          0.05000212	          0.05000021	          0.05000175	          0.05000101	          0.05000059	          0.43308127	          0.65883950	          0.05000006	          0.05000024	          0.05000007	          0.25738103	          0.11400125	          0.05004086	          0.05005684	          0.32096800	          0.43620110	          0.30460625	          0.27904272	          0.28239905	          0.37310556	          0.05000000	          0.06803419	          0.17725810	          0.05000008	          0.05000002	          0.05000006	          0.05000000	          0.05000000	          0.05000000	          0.05000015	          0.05000009	          0.05000036	          0.05000014	          0.05000014	          0.05000031	          0.05922023	          0.05921985	          0.31894444	          0.05000016	          0.05000027	          0.10731405	          0.17018652	          0.20284363	          0.17203915	          0.12665271	          0.05000140	          0.05912612	          0.05922062	          0.05000039	          0.07012948	          0.12222287	          0.05374587	          0.05921905	          0.20344160	          0.05000298	          0.05000162	          0.05001496	          0.13098843	          0.13299244	          0.11371092	          0.05153818	          0.05000037	          0.05922023	          0.05000002	          0.05000070	          0.05001301	          0.52437306	          0.37094693	          0.21805911	          0.31159525	          0.56459250	          0.27349445	          0.06738436	          0.10109130	          0.09839453	
          1.11749464	         -2.91906557	         -2.54436684	          6.33791079	          1.39993035	          0.85428168	         -0.00309396	        -18.34057371	         -2.40757225	          7.07431017	         31.39460475	          3.52454489	         -3.08530109	         -9.46345272	        -14.85900490	         -0.71838469	          5.48129560	         11.91906172	         -3.44655824	          1.49288593	          0.04173342	         23.59494988	         -0.10346120	         -1.95813150	          1.10764912	         -2.10904376	          8.20977496	        -13.47859601	         18.38698648	         -9.63825083	        -13.55201212	         10.27806613	         38.52482726	         12.01964980	         86.51662706	         86.51662706	          0.20904406	          0.08307470	          0.05922062	          0.25857781	          0.16844433	          0.08446502	          0.05000230	          0.05000016	          0.05000022	          0.06921810	          0.09626482	          0.16620649	          0.11258581	          0.07013858	          0.05000616	          0.05000106	          0.27585745	          0.10016950	          0.05043810	          0.05000097	          0.05000061	          0.05000066	          0.36565304	          0.59758649	          0.05000951	          0.06457099	          0.05922034	          0.21730830	          0.10799944	          0.16348234	          0.16348225	          0.27099513	          0.36828711	          0.25718081	          0.23559747	          0.23843134	          0.31501530	          0.05000000	          0.05744168	          0.15978589	          0.05000003	          0.05000000	          0.05000004	          0.05315190	          0.07014075	          0.05000004	          0.05000031	          0.05000050	          0.05000105	          0.05000027	          0.05000033	          0.05000023	          0.05000003	          0.05000006	          0.27832139	          0.05000006	          0.05000059	          0.09060596	          0.14368952	          0.27501159	          0.20951990	          0.12516157	          0.05000008	          0.05000075	          0.05000047	          0.05922028	          0.05928493	          0.14359177	          0.05000004	          0.05000013	          0.53249725	          0.11654486	          0.10939775	          0.07014071	          0.21151035	          0.21548611	          0.18622348	          0.05000000	          0.05000000	          0.05000000	          0.05000008	          0.05922152	          0.05000034	          0.60298233	          0.31319273	          0.21283149	          0.50785718	          0.60139462	          0.26306951	          0.05689300	          0.08535197	          0.08307507	
          1.12855894	         -2.90680712	         -2.63779048	          6.58843246	          1.41711288	          0.85320148	         -0.00289260	        -18.05381151	         -2.71769074	          6.87865431	         30.65238698	          3.85779758	         -2.83213333	        -11.68722048	        -15.32002597	         -1.78102157	          4.88548149	         12.89926311	         -3.98851341	          1.22621696	         -0.03462288	         24.53238701	         -0.15189435	         -1.71834764	          1.34034649	         -2.18699991	          7.87333975	        -13.49626683	         18.41717314	        -10.82721873	        -13.54801362	         10.17793269	         39.81057600	         12.00180798	         86.51662706	         86.51662706	          0.29639704	          0.07014046	          0.05000039	          0.21831884	          0.14221854	          0.07131432	          0.05000079	          0.05000015	          0.05000015	          0.05844126	          0.08127705	          0.16803188	          0.19003229	          0.05922039	          0.05921978	          0.05003771	          0.23290846	          0.08459597	          0.05030848	          0.05003799	          0.05006441	          0.05921596	          0.30872299	          0.55519995	          0.05922019	          0.05451786	          0.05000010	          0.18347466	          0.13802888	          0.13802919	          0.13802911	          0.22880275	          0.31094693	          0.21713924	          0.19891631	          0.20130900	          0.26596927	          0.05000000	          0.05000025	          0.20358052	          0.05000003	          0.05000002	          0.05000005	          0.06420977	          0.05922024	          0.05000004	          0.30075140	          0.05000006	          0.35573756	          0.05000021	          0.05000015	          0.29860164	          0.08341776	          0.05000047	          0.23498853	          0.05000011	          0.05000029	          0.08307477	          0.19539501	          0.23219404	          0.19502121	          0.16096739	          0.05000021	          0.05928334	          0.13952267	          0.05000010	          0.05005463	          0.12860625	          0.05275890	          0.05000019	          0.44959051	          0.09839954	          0.19696939	          0.05922021	          0.17857945	          0.18193622	          0.15722959	          0.05922029	          0.05922030	          0.05922026	          0.05922019	          0.05000117	          0.05922001	          0.50910146	          0.40794843	          0.20700316	          0.42878696	          0.60308856	          0.22211112	          0.05172246	          0.09839446	          0.07014076	
          1.13962325	         -2.89255300	         -2.72838603	          6.80307787	          1.43439011	          0.85213687	         -0.00267402	        -17.66199305	         -3.01054652	          6.67811960	         29.79201931	          4.15157724	         -2.56246711	        -14.05916767	        -15.82641122	         -2.99842321	          4.52270131	         13.80281475	         -4.54072508	          0.94298460	         -0.01923403	         25.19286296	         -0.16887344	         -1.47688197	          1.57339671	         -2.25559810	          7.47518217	        -13.51904507	         18.39079529	        -11.97894869	        -13.54621783	         10.13001700	         41.05038422	         12.00116168	         86.51662706	         86.51662706	          0.25024981	          0.05922000	          0.05000001	          0.28655483	          0.12007596	          0.06021110	          0.06765750	          0.05000004	          0.05000004	          0.05000006	          0.06862293	          0.16501073	          0.16044546	          0.05000022	          0.05000023	          0.05000016	          0.24299533	          0.07142529	          0.05000012	          0.05000028	          0.05000017	          0.05000011	          0.26065662	          0.50066941	          0.05000001	          0.05000009	          0.05000005	          0.15490872	          0.11653882	          0.11653892	          0.11653889	          0.19317948	          0.26253428	          0.18333191	          0.16794620	          0.16996639	          0.22455942	          0.08872492	          0.15092685	          0.17188434	          0.05000080	          0.16099300	          0.05000050	          0.09227337	          0.05000000	          0.05000001	          0.35397425	          0.32267295	          0.42135602	          0.21166665	          0.19597665	          0.25211126	          0.07043091	          0.11335742	          0.19840217	          0.07014102	          0.05000045	          0.07014053	          0.16497315	          0.19604290	          0.17467284	          0.18047654	          0.05000010	          0.05005345	          0.11780038	          0.24391962	          0.18689349	          0.16854224	          0.05000003	          0.05000004	          0.37959189	          0.08307943	          0.16630254	          0.05000001	          0.15077586	          0.21708680	          0.14694073	          0.05000003	          0.05000006	          0.05000000	          0.05000000	          0.05000015	          0.05000008	          0.63846175	          0.37376953	          0.18960319	          0.67126694	          0.66669307	          0.35892666	          0.07978719	          0.08307503	          0.05922025	
